<svg width="26" height="26" viewBox="0 0 26 26" fill="none" xmlns="http://www.w3.org/2000/svg">
<path d="M5.61604 22.2777L6.07003 21.3867H6.07003L5.61604 22.2777ZM3.72231 20.384L2.8313 20.8379L3.72231 20.384ZM22.2777 20.384L21.3867 19.93V19.93L22.2777 20.384ZM20.384 22.2777L20.8379 23.1687L20.384 22.2777ZM7.66667 22.75C7.66667 23.3023 8.11438 23.75 8.66667 23.75C9.21895 23.75 9.66667 23.3023 9.66667 22.75H7.66667ZM16.3333 22.75C16.3333 23.3023 16.781 23.75 17.3333 23.75C17.8856 23.75 18.3333 23.3023 18.3333 22.75H16.3333ZM9.75 8.66667L8.76942 8.47055L8.75 8.56765V8.66667H9.75ZM3.27642 9.08304L2.2845 9.20989H2.2845L3.27642 9.08304ZM16.25 8.66667H17.25V8.56765L17.2306 8.47055L16.25 8.66667ZM22.7103 9.17619L21.7225 9.02065V9.02065L22.7103 9.17619ZM3.40497 8.27925L4.33344 8.65064L4.33344 8.65064L3.40497 8.27925ZM4.87187 4.61199L5.80035 4.98338L4.87187 4.61199ZM20.6405 4.4477L19.7461 4.89492V4.89492L20.6405 4.4477ZM22.5213 8.20918L23.4157 7.76197V7.76197L22.5213 8.20918ZM21.75 8.66677V15.8167H23.75V8.66677H21.75ZM15.8167 21.75H10.1833V23.75H15.8167V21.75ZM4.25 15.8167V8.66677H2.25V15.8167H4.25ZM10.1833 21.75C8.95339 21.75 8.09107 21.7492 7.41864 21.6943C6.75789 21.6403 6.36904 21.539 6.07003 21.3867L5.16205 23.1687C5.78999 23.4887 6.47134 23.6236 7.25578 23.6876C8.02854 23.7508 8.98639 23.75 10.1833 23.75V21.75ZM2.25 15.8167C2.25 17.0136 2.24922 17.9715 2.31236 18.7442C2.37645 19.5287 2.51135 20.21 2.8313 20.8379L4.61331 19.93C4.46096 19.631 4.3597 19.2421 4.30572 18.5814C4.25078 17.9089 4.25 17.0466 4.25 15.8167H2.25ZM6.07003 21.3867C5.44282 21.0671 4.93289 20.5572 4.61331 19.93L2.8313 20.8379C3.34262 21.8415 4.15852 22.6574 5.16205 23.1687L6.07003 21.3867ZM21.75 15.8167C21.75 17.0466 21.7492 17.9089 21.6943 18.5814C21.6403 19.2421 21.539 19.631 21.3867 19.93L23.1687 20.8379C23.4887 20.21 23.6236 19.5287 23.6876 18.7442C23.7508 17.9715 23.75 17.0136 23.75 15.8167H21.75ZM15.8167 23.75C17.0136 23.75 17.9715 23.7508 18.7442 23.6876C19.5287 23.6236 20.21 23.4887 20.8379 23.1687L19.93 21.3867C19.631 21.539 19.2421 21.6403 18.5814 21.6943C17.9089 21.7492 17.0466 21.75 15.8167 21.75V23.75ZM21.3867 19.93C21.0671 20.5572 20.5572 21.0671 19.93 21.3867L20.8379 23.1687C21.8415 22.6574 22.6574 21.8415 23.1687 20.8379L21.3867 19.93ZM9.66667 22.75V18.4167H7.66667V22.75H9.66667ZM10.8333 17.25H15.1667V15.25H10.8333V17.25ZM16.3333 18.4167V22.75H18.3333V18.4167H16.3333ZM15.1667 17.25C15.811 17.25 16.3333 17.7723 16.3333 18.4167H18.3333C18.3333 16.6678 16.9156 15.25 15.1667 15.25V17.25ZM9.66667 18.4167C9.66667 17.7723 10.189 17.25 10.8333 17.25V15.25C9.08443 15.25 7.66667 16.6678 7.66667 18.4167H9.66667ZM8.75 8.66667C8.75 9.90931 7.74264 10.9167 6.5 10.9167V12.9167C8.84721 12.9167 10.75 11.0139 10.75 8.66667H8.75ZM6.5 10.9167C5.3558 10.9167 4.40972 10.0617 4.26834 8.95619L2.2845 9.20989C2.55192 11.301 4.33649 12.9167 6.5 12.9167V10.9167ZM15.25 8.66667C15.25 9.90931 14.2426 10.9167 13 10.9167V12.9167C15.3472 12.9167 17.25 11.0139 17.25 8.66667H15.25ZM13 10.9167C11.7574 10.9167 10.75 9.90931 10.75 8.66667H8.75C8.75 11.0139 10.6528 12.9167 13 12.9167V10.9167ZM21.7225 9.02065C21.5533 10.0949 20.6217 10.9167 19.5 10.9167V12.9167C21.6215 12.9167 23.3782 11.3633 23.6981 9.33173L21.7225 9.02065ZM19.5 10.9167C18.2574 10.9167 17.25 9.90931 17.25 8.66667H15.25C15.25 11.0139 17.1528 12.9167 19.5 12.9167V10.9167ZM4.33344 8.65064L5.80035 4.98338L3.9434 4.2406L2.47649 7.90786L4.33344 8.65064ZM19.7461 4.89492L21.6268 8.6564L23.4157 7.76197L21.5349 4.00049L19.7461 4.89492ZM6.88357 4.25H10.8333V2.25H6.88357V4.25ZM10.7306 8.86278L11.8139 3.44612L9.85275 3.05388L8.76942 8.47055L10.7306 8.86278ZM10.8333 4.25H15.1667V2.25H10.8333V4.25ZM15.1667 4.25H18.7026V2.25H15.1667V4.25ZM17.2306 8.47055L16.1472 3.05388L14.1861 3.44612L15.2694 8.86278L17.2306 8.47055ZM21.5349 4.00049C20.9985 2.92767 19.902 2.25 18.7026 2.25V4.25C19.1445 4.25 19.5485 4.49967 19.7461 4.89492L21.5349 4.00049ZM23.6981 9.33173C23.7944 8.72055 23.6195 8.1696 23.4157 7.76197L21.6268 8.6564C21.7239 8.85047 21.7309 8.96729 21.7225 9.02065L23.6981 9.33173ZM5.80035 4.98338C5.97752 4.54044 6.40652 4.25 6.88357 4.25V2.25C5.58871 2.25 4.4243 3.03835 3.94339 4.2406L5.80035 4.98338ZM4.26834 8.95619C4.2625 8.91046 4.26776 8.81485 4.33344 8.65064L2.47649 7.90786C2.33743 8.2555 2.22042 8.70878 2.2845 9.20989L4.26834 8.95619Z" fill="#111111"/>
</svg>
