<svg width="24" height="19" viewBox="0 0 24 19" fill="none" xmlns="http://www.w3.org/2000/svg">
<path d="M14 14.5417V1.54167C14 1.24251 13.7575 1 13.4583 1H1.54167C1.24251 1 1 1.24251 1 1.54167V14.5417C1 14.8408 1.24251 15.0833 1.54167 15.0833H3.16667M14 14.5417C14 14.8408 13.7575 15.0833 13.4583 15.0833H7.5M14 14.5417V4.79167C14 4.49251 14.2425 4.25 14.5417 4.25H18.109C18.2526 4.25 18.3904 4.30707 18.492 4.40865L22.508 8.42468C22.6096 8.52627 22.6667 8.66404 22.6667 8.8077V14.5417C22.6667 14.8408 22.4242 15.0833 22.125 15.0833H20.5M14 14.5417C14 14.8408 14.2425 15.0833 14.5417 15.0833H16.1667M3.16667 15.0833C3.16667 16.28 4.13672 17.25 5.33333 17.25C6.52995 17.25 7.5 16.28 7.5 15.0833M3.16667 15.0833C3.16667 13.8867 4.13672 12.9167 5.33333 12.9167C6.52995 12.9167 7.5 13.8867 7.5 15.0833M16.1667 15.0833C16.1667 16.28 17.1367 17.25 18.3333 17.25C19.53 17.25 20.5 16.28 20.5 15.0833M16.1667 15.0833C16.1667 13.8867 17.1367 12.9167 18.3333 12.9167C19.53 12.9167 20.5 13.8867 20.5 15.0833" stroke="#111111" stroke-width="2"/>
</svg>
