<svg width="26" height="26" viewBox="0 0 26 26" fill="none" xmlns="http://www.w3.org/2000/svg">
<path d="M3.34977 19.2638L3.80376 18.3728L3.80376 18.3728L3.34977 19.2638ZM2.4029 18.317L1.51189 18.771L2.4029 18.317ZM23.8329 16.6836L24.8329 16.6875L23.8329 16.6836ZM23.5973 18.317L24.4883 18.771L24.4883 18.771L23.5973 18.317ZM22.6504 19.2638L23.1044 20.1549L23.1044 20.1549L22.6504 19.2638ZM22.6504 6.73615L23.1044 5.84515L23.1044 5.84515L22.6504 6.73615ZM23.5973 7.68302L24.4883 7.22903V7.22903L23.5973 7.68302ZM3.34977 6.73615L3.80376 7.62716L3.80376 7.62716L3.34977 6.73615ZM2.4029 7.68302L3.29391 8.13701L3.29391 8.13701L2.4029 7.68302ZM23.4011 16.2215L23.2694 17.2128L23.2694 17.2128L23.4011 16.2215ZM23.401 9.77852L23.5328 10.7698L23.401 9.77852ZM23.8321 9.31613L22.8322 9.32346V9.32346L23.8321 9.31613ZM23.7078 9.71242L24.244 10.5565V10.5565L23.7078 9.71242ZM23.8091 9.59585L22.8987 9.18217L22.8987 9.18221L23.8091 9.59585ZM23.809 16.4036L24.7185 15.9878L24.7185 15.9877L23.809 16.4036ZM23.7077 16.2874L23.1724 17.1321L23.1724 17.1321L23.7077 16.2874ZM18.3334 6.5C18.3334 5.94772 17.8857 5.5 17.3334 5.5C16.7811 5.5 16.3334 5.94772 16.3334 6.5H18.3334ZM16.3334 19.5C16.3334 20.0523 16.7811 20.5 17.3334 20.5C17.8857 20.5 18.3334 20.0523 18.3334 19.5H16.3334ZM6.50008 9.83333C5.9478 9.83333 5.50008 10.281 5.50008 10.8333C5.50008 11.3856 5.9478 11.8333 6.50008 11.8333V9.83333ZM13.0001 11.8333C13.5524 11.8333 14.0001 11.3856 14.0001 10.8333C14.0001 10.281 13.5524 9.83333 13.0001 9.83333V11.8333ZM6.50008 14.1667C5.9478 14.1667 5.50008 14.6144 5.50008 15.1667C5.50008 15.719 5.9478 16.1667 6.50008 16.1667V14.1667ZM13.0001 16.1667C13.5524 16.1667 14.0001 15.719 14.0001 15.1667C14.0001 14.6144 13.5524 14.1667 13.0001 14.1667V16.1667ZM5.63341 7.5H20.3667V5.5H5.63341V7.5ZM20.3667 18.5H5.63342V20.5H20.3667V18.5ZM5.63342 18.5C5.01019 18.5 4.60291 18.4992 4.29178 18.4738C3.99233 18.4493 3.87103 18.4071 3.80376 18.3728L2.89578 20.1549C3.29198 20.3567 3.70578 20.4326 4.12892 20.4672C4.54038 20.5008 5.04319 20.5 5.63342 20.5V18.5ZM1.16675 16.25C1.16675 17.3745 1.14265 18.0463 1.51189 18.771L3.29391 17.863C3.19085 17.6607 3.16675 17.5524 3.16675 16.25H1.16675ZM3.80376 18.3728C3.58424 18.261 3.40576 18.0825 3.29391 17.863L1.51189 18.771C1.81549 19.3668 2.29993 19.8513 2.89578 20.1549L3.80376 18.3728ZM22.8329 16.6797C22.8293 17.5829 22.7895 17.6996 22.7063 17.863L24.4883 18.771C24.8159 18.128 24.8295 17.5494 24.8329 16.6875L22.8329 16.6797ZM20.3667 20.5C20.957 20.5 21.4598 20.5008 21.8712 20.4672C22.2944 20.4326 22.7082 20.3567 23.1044 20.1549L22.1964 18.3728C22.1291 18.4071 22.0078 18.4493 21.7084 18.4738C21.3972 18.4992 20.99 18.5 20.3667 18.5V20.5ZM22.7063 17.863C22.5944 18.0825 22.4159 18.261 22.1964 18.3728L23.1044 20.1549C23.7002 19.8513 24.1847 19.3668 24.4883 18.771L22.7063 17.863ZM20.3667 7.5C20.99 7.5 21.3972 7.50078 21.7084 7.5262C22.0078 7.55066 22.1291 7.59288 22.1964 7.62716L23.1044 5.84515C22.7082 5.64327 22.2944 5.56741 21.8712 5.53284C21.4598 5.49922 20.957 5.5 20.3667 5.5V7.5ZM22.1964 7.62716C22.4159 7.73901 22.5944 7.91749 22.7063 8.13701L24.4883 7.22903C24.1847 6.63318 23.7002 6.14875 23.1044 5.84515L22.1964 7.62716ZM5.63341 5.5C5.04319 5.5 4.54038 5.49922 4.12892 5.53284C3.70578 5.56741 3.29198 5.64327 2.89578 5.84515L3.80376 7.62716C3.87103 7.59288 3.99233 7.55066 4.29178 7.5262C4.60291 7.50078 5.01019 7.5 5.63341 7.5V5.5ZM3.16675 9.75C3.16675 8.44757 3.19085 8.33928 3.29391 8.13701L1.51189 7.22903C1.14265 7.95371 1.16675 8.62554 1.16675 9.75H3.16675ZM2.89578 5.84515C2.29993 6.14875 1.81549 6.63318 1.51189 7.22903L3.29391 8.13701C3.40576 7.91749 3.58424 7.73901 3.80376 7.62716L2.89578 5.84515ZM23.5329 15.2302C22.4327 15.084 21.5834 14.1404 21.5834 13H19.5834C19.5834 15.1563 21.1884 16.9362 23.2694 17.2128L23.5329 15.2302ZM21.5834 13C21.5834 11.8597 22.4326 10.9161 23.5328 10.7698L23.2692 8.78724C21.1883 9.06391 19.5834 10.8437 19.5834 13H21.5834ZM24.8321 9.3088C24.8263 8.51599 24.8056 7.85186 24.4883 7.22903L22.7063 8.13701C22.7782 8.27811 22.8259 8.47233 22.8322 9.32346L24.8321 9.3088ZM3.16675 16.25V9.75H1.16675V16.25H3.16675ZM23.5328 10.7698C23.605 10.7602 23.7061 10.7472 23.7933 10.73C23.8735 10.7142 24.0574 10.6751 24.244 10.5565L23.1715 8.86835C23.2445 8.82197 23.3083 8.79705 23.3465 8.78434C23.3658 8.7779 23.381 8.77381 23.3902 8.77148C23.3995 8.76914 23.4052 8.76802 23.4059 8.76789C23.4066 8.76775 23.4043 8.76822 23.3979 8.76927C23.3915 8.77031 23.3827 8.77168 23.3704 8.77345C23.3446 8.77719 23.3136 8.78133 23.2692 8.78724L23.5328 10.7698ZM22.8322 9.32346C22.8325 9.36299 22.8326 9.38852 22.8325 9.40941C22.8324 9.43042 22.832 9.43404 22.8323 9.42873C22.8326 9.42346 22.8345 9.3953 22.8427 9.35444C22.8513 9.31096 22.8676 9.25056 22.8987 9.18217L24.7195 10.0095C24.8054 9.82063 24.8224 9.64782 24.8283 9.55519C24.8339 9.46727 24.8326 9.3694 24.8321 9.3088L22.8322 9.32346ZM24.244 10.5565C24.4562 10.4217 24.6156 10.2383 24.7196 10.0095L22.8987 9.18221C22.9187 9.13804 22.9544 9.07349 23.013 9.00606C23.0716 8.93863 23.1306 8.89436 23.1715 8.86835L24.244 10.5565ZM24.8329 16.6875C24.8331 16.6267 24.8341 16.5289 24.8283 16.4412C24.8222 16.3492 24.8047 16.1764 24.7185 15.9878L22.8996 16.8194C22.8683 16.7509 22.8519 16.6905 22.8431 16.6473C22.8349 16.6066 22.833 16.5787 22.8327 16.5736C22.8323 16.5685 22.8327 16.5723 22.8329 16.5934C22.8331 16.6144 22.8331 16.6401 22.8329 16.6797L24.8329 16.6875ZM23.2694 17.2128C23.3138 17.2187 23.3448 17.2228 23.3706 17.2266C23.3829 17.2283 23.3917 17.2297 23.3981 17.2308C23.4045 17.2318 23.4069 17.2323 23.4062 17.2321C23.4056 17.232 23.4 17.2309 23.3907 17.2286C23.3815 17.2263 23.3664 17.2222 23.3471 17.2158C23.3092 17.2032 23.2454 17.1784 23.1724 17.1321L24.2431 15.4428C24.0566 15.3246 23.873 15.2857 23.7931 15.2699C23.706 15.2528 23.6051 15.2398 23.5329 15.2302L23.2694 17.2128ZM24.7185 15.9877C24.6141 15.7596 24.455 15.5771 24.2431 15.4428L23.1724 17.1321C23.132 17.1065 23.0729 17.0624 23.014 16.9949C22.9551 16.9274 22.9195 16.8629 22.8996 16.8194L24.7185 15.9877ZM16.3334 6.5V19.5H18.3334V6.5H16.3334ZM6.50008 11.8333H13.0001V9.83333H6.50008V11.8333ZM6.50008 16.1667H13.0001V14.1667H6.50008V16.1667Z" fill="#111111"/>
</svg>
