<svg width="18" height="12" viewBox="0 0 18 12" fill="none" xmlns="http://www.w3.org/2000/svg">
<path d="M17.066 5.13311C15.4968 2.07147 12.3903 0 8.83333 0C5.27632 0 2.16897 2.07292 0.600679 5.1334C0.534487 5.26434 0.5 5.409 0.5 5.55571C0.5 5.70243 0.534487 5.84709 0.600679 5.97802C2.16984 9.03966 5.27632 11.1111 8.83333 11.1111C12.3903 11.1111 15.4977 9.03821 17.066 5.97773C17.1322 5.8468 17.1667 5.70214 17.1667 5.55542C17.1667 5.40871 17.1322 5.26405 17.066 5.13311ZM8.83333 9.72224C8.00924 9.72224 7.20366 9.47787 6.51845 9.02003C5.83325 8.56219 5.29919 7.91144 4.98383 7.15008C4.66846 6.38872 4.58595 5.55094 4.74672 4.74269C4.90749 3.93443 5.30433 3.192 5.88705 2.60928C6.46977 2.02656 7.2122 1.62973 8.02046 1.46895C8.82871 1.30818 9.66649 1.3907 10.4279 1.70606C11.1892 2.02143 11.84 2.55548 12.2978 3.24069C12.7556 3.92589 13 4.73148 13 5.55557C13.0003 6.10282 12.8927 6.64476 12.6834 7.1504C12.4741 7.65604 12.1672 8.11548 11.7802 8.50245C11.3932 8.88941 10.9338 9.19631 10.4282 9.40562C9.92252 9.61492 9.38058 9.72251 8.83333 9.72224ZM8.83333 2.77778C8.5854 2.78125 8.33906 2.81814 8.10098 2.88745C8.29723 3.15414 8.3914 3.48232 8.36642 3.81249C8.34145 4.14266 8.19897 4.45294 7.96484 4.68708C7.73071 4.92121 7.42043 5.06368 7.09026 5.08866C6.76009 5.11363 6.4319 5.01946 6.16522 4.82322C6.01335 5.3827 6.04077 5.97573 6.2436 6.51882C6.44642 7.06191 6.81446 7.52773 7.29589 7.8507C7.77733 8.17367 8.34792 8.33753 8.92736 8.31923C9.50681 8.30093 10.0659 8.10137 10.526 7.74866C10.9861 7.39595 11.324 6.90783 11.4921 6.35302C11.6603 5.79821 11.6502 5.20463 11.4633 4.65585C11.2765 4.10706 10.9222 3.63069 10.4504 3.29379C9.97863 2.95689 9.41306 2.77642 8.83333 2.77778Z" fill="#878787"/>
</svg>
