<svg width="21" height="21" viewBox="0 0 21 21" fill="none" xmlns="http://www.w3.org/2000/svg">
<path fill-rule="evenodd" clip-rule="evenodd" d="M9.53261 7.89926C9.20977 7.89926 8.88147 8.19171 8.88147 8.62484C8.88147 8.95281 8.95185 9.07109 8.98714 9.11603C9.02901 9.16934 9.11275 9.23577 9.33672 9.3157L12.1387 10.2931C12.4665 10.4098 12.8411 10.5929 13.1209 10.9513C13.4069 11.3175 13.5233 11.7743 13.5233 12.2993C13.5233 13.4413 12.6394 14.4202 11.4768 14.4202H9.72798C8.45796 14.4202 7.47681 13.3527 7.47681 12.0946C7.47681 11.7093 7.78917 11.3969 8.17448 11.3969C8.5598 11.3969 8.87216 11.7093 8.87216 12.0946C8.87216 12.6412 9.28638 13.0248 9.72798 13.0248H11.4768C11.8025 13.0248 12.128 12.7386 12.128 12.2993C12.128 11.9777 12.0584 11.8578 12.0211 11.81C11.9778 11.7546 11.8923 11.6868 11.6728 11.6084L8.87076 10.631C8.54735 10.5159 8.171 10.336 7.88974 9.97783C7.60178 9.61114 7.48612 9.15268 7.48612 8.62484C7.48612 7.49517 8.36708 6.50391 9.53261 6.50391H11.2815C12.5515 6.50391 13.5326 7.57139 13.5326 8.82949C13.5326 9.2148 13.2203 9.52716 12.835 9.52716C12.4496 9.52716 12.1373 9.2148 12.1373 8.82949C12.1373 8.28293 11.7231 7.89926 11.2815 7.89926H9.53261Z" fill="#3C3C3C"/>
<path fill-rule="evenodd" clip-rule="evenodd" d="M10.5002 5.58301C10.8855 5.58301 11.1978 5.89537 11.1978 6.28068V14.6528C11.1978 15.0381 10.8855 15.3504 10.5002 15.3504C10.1148 15.3504 9.80249 15.0381 9.80249 14.6528V6.28068C9.80249 5.89537 10.1148 5.58301 10.5002 5.58301Z" fill="#3C3C3C"/>
<path fill-rule="evenodd" clip-rule="evenodd" d="M10.5 1.86202C5.75043 1.86202 1.89535 5.71711 1.89535 10.4667C1.89535 15.2162 5.75043 19.0713 10.5 19.0713C15.2496 19.0713 19.1047 15.2162 19.1047 10.4667C19.1047 10.0814 19.417 9.769 19.8023 9.769C20.1876 9.769 20.5 10.0814 20.5 10.4667C20.5 15.9869 16.0202 20.4667 10.5 20.4667C4.9798 20.4667 0.5 15.9869 0.5 10.4667C0.5 4.94648 4.9798 0.466675 10.5 0.466675C10.8853 0.466675 11.1977 0.779034 11.1977 1.16435C11.1977 1.54966 10.8853 1.86202 10.5 1.86202Z" fill="#3C3C3C"/>
<path fill-rule="evenodd" clip-rule="evenodd" d="M15.1513 1.39685C15.5366 1.39685 15.849 1.70921 15.849 2.09453V5.11778H18.8722C19.2575 5.11778 19.5699 5.43014 19.5699 5.81546C19.5699 6.20077 19.2575 6.51313 18.8722 6.51313H15.1513C14.766 6.51313 14.4536 6.20077 14.4536 5.81546V2.09453C14.4536 1.70921 14.766 1.39685 15.1513 1.39685Z" fill="#3C3C3C"/>
<path fill-rule="evenodd" clip-rule="evenodd" d="M20.2955 0.671019C20.568 0.943478 20.568 1.38522 20.2955 1.65768L15.6444 6.30884C15.3719 6.5813 14.9302 6.5813 14.6577 6.30884C14.3853 6.03638 14.3853 5.59464 14.6577 5.32218L19.3089 0.671019C19.5813 0.39856 20.0231 0.39856 20.2955 0.671019Z" fill="#3C3C3C"/>
</svg>
