<svg width="21" height="20" viewBox="0 0 21 20" fill="none" xmlns="http://www.w3.org/2000/svg">
<path fill-rule="evenodd" clip-rule="evenodd" d="M9.53261 7.43258C9.20977 7.43258 8.88147 7.72503 8.88147 8.15816C8.88147 8.48613 8.95185 8.60441 8.98714 8.64935C9.02901 8.70266 9.11275 8.7691 9.33672 8.84902L12.1387 9.82645C12.4665 9.94313 12.8411 10.1263 13.1209 10.4846C13.4069 10.8508 13.5233 11.3076 13.5233 11.8326C13.5233 12.9746 12.6394 13.9535 11.4768 13.9535H9.72798C8.45796 13.9535 7.47681 12.886 7.47681 11.6279C7.47681 11.2426 7.78917 10.9302 8.17448 10.9302C8.5598 10.9302 8.87216 11.2426 8.87216 11.6279C8.87216 12.1745 9.28638 12.5582 9.72798 12.5582H11.4768C11.8025 12.5582 12.128 12.2719 12.128 11.8326C12.128 11.511 12.0584 11.3911 12.0211 11.3434C11.9778 11.2879 11.8923 11.2201 11.6728 11.1417L8.87076 10.1643C8.54735 10.0492 8.171 9.86932 7.88974 9.51115C7.60178 9.14447 7.48612 8.686 7.48612 8.15816C7.48612 7.0285 8.36708 6.03723 9.53261 6.03723H11.2815C12.5515 6.03723 13.5326 7.10472 13.5326 8.36281C13.5326 8.74813 13.2203 9.06049 12.835 9.06049C12.4496 9.06049 12.1373 8.74813 12.1373 8.36281C12.1373 7.81626 11.7231 7.43258 11.2815 7.43258H9.53261Z" fill="#3C3C3C"/>
<path fill-rule="evenodd" clip-rule="evenodd" d="M10.5002 5.11633C10.8855 5.11633 11.1978 5.42869 11.1978 5.81401V14.1861C11.1978 14.5714 10.8855 14.8838 10.5002 14.8838C10.1148 14.8838 9.80249 14.5714 9.80249 14.1861V5.81401C9.80249 5.42869 10.1148 5.11633 10.5002 5.11633Z" fill="#3C3C3C"/>
<path fill-rule="evenodd" clip-rule="evenodd" d="M10.5 1.39535C5.75043 1.39535 1.89535 5.25043 1.89535 10C1.89535 14.7496 5.75043 18.6047 10.5 18.6047C15.2496 18.6047 19.1047 14.7496 19.1047 10C19.1047 9.61469 19.417 9.30233 19.8023 9.30233C20.1876 9.30233 20.5 9.61469 20.5 10C20.5 15.5202 16.0202 20 10.5 20C4.9798 20 0.5 15.5202 0.5 10C0.5 4.4798 4.9798 0 10.5 0C10.8853 0 11.1977 0.312359 11.1977 0.697674C11.1977 1.08299 10.8853 1.39535 10.5 1.39535Z" fill="#3C3C3C"/>
<path fill-rule="evenodd" clip-rule="evenodd" d="M15.3838 0.697674C15.3838 0.312359 15.6961 0 16.0815 0H19.8024C20.1877 0 20.5001 0.312359 20.5001 0.697674V4.4186C20.5001 4.80392 20.1877 5.11628 19.8024 5.11628C19.4171 5.11628 19.1047 4.80392 19.1047 4.4186V1.39535H16.0815C15.6961 1.39535 15.3838 1.08299 15.3838 0.697674Z" fill="#3C3C3C"/>
<path fill-rule="evenodd" clip-rule="evenodd" d="M20.2955 0.204344C20.568 0.476803 20.568 0.918546 20.2955 1.191L15.6444 5.84217C15.3719 6.11463 14.9302 6.11463 14.6577 5.84217C14.3853 5.56971 14.3853 5.12797 14.6577 4.85551L19.3089 0.204344C19.5813 -0.0681147 20.0231 -0.0681147 20.2955 0.204344Z" fill="#3C3C3C"/>
</svg>
