<svg width="47" height="28" viewBox="0 0 47 28" fill="none" xmlns="http://www.w3.org/2000/svg">
<path d="M23.1 24.382C20.6533 26.4444 17.4795 27.6894 14.0114 27.6894C6.27313 27.6894 0 21.4909 0 13.8447C0 6.19848 6.27313 0 14.0114 0C17.4795 0 20.6533 1.24501 23.1 3.30736C25.5467 1.24501 28.7205 0 32.1885 0C39.9268 0 46.2 6.19848 46.2 13.8447C46.2 21.4909 39.9268 27.6894 32.1885 27.6894C28.7205 27.6894 25.5467 26.4444 23.1 24.382Z" fill="#ED0006"/>
<path d="M23.1001 24.382C26.1127 21.8426 28.0229 18.0641 28.0229 13.8447C28.0229 9.62531 26.1127 5.84679 23.1001 3.30742C25.5468 1.24503 28.7206 0 32.1887 0C39.927 0 46.2001 6.19848 46.2001 13.8447C46.2001 21.4909 39.927 27.6894 32.1887 27.6894C28.7206 27.6894 25.5468 26.4443 23.1001 24.382Z" fill="#F9A000"/>
<path d="M23.0999 24.3821C26.1125 21.8427 28.0227 18.0641 28.0227 13.8447C28.0227 9.62532 26.1125 5.84677 23.0999 3.3074C20.0873 5.84677 18.177 9.62532 18.177 13.8447C18.177 18.0641 20.0873 21.8427 23.0999 24.3821Z" fill="#FF5E00"/>
</svg>
