<svg width="49" height="17" viewBox="0 0 49 17" fill="none" xmlns="http://www.w3.org/2000/svg">
<path d="M31.71 0C33.2286 0 34.4568 0.349344 35.2311 0.665744L34.6972 4.04244L34.3422 3.87639C33.6318 3.56021 32.6941 3.24426 31.4179 3.27764C29.8679 3.27764 29.1728 3.95931 29.1567 4.62483C29.1567 5.3569 29.9976 5.83935 31.3706 6.55484C33.6324 7.66943 34.6816 9.03342 34.6659 10.8135C34.6341 14.0576 31.9524 16.1538 27.8333 16.1538C26.0721 16.137 24.3757 15.7536 23.455 15.3216L24.0043 11.8114L24.5213 12.0612C25.7975 12.644 26.6373 12.893 28.2046 12.893C29.3349 12.893 30.5467 12.4101 30.5622 11.3625C30.5622 10.6804 30.0459 10.1809 28.5271 9.41571C27.0411 8.66683 25.0543 7.41936 25.0865 5.17339C25.1033 2.12923 27.8333 0 31.71 0Z" fill="white"/>
<path d="M17.0743 15.9208H21L23.4552 0.283461H19.5297L17.0743 15.9208Z" fill="white"/>
<path fill-rule="evenodd" clip-rule="evenodd" d="M45.2945 0.283461H42.2579C41.3215 0.283461 40.6101 0.566032 40.2061 1.5809L34.375 15.9206H38.4941C38.4941 15.9206 39.1722 13.9906 39.318 13.5749H44.3583C44.471 14.1239 44.8267 15.9206 44.8267 15.9206H48.4616L45.2945 0.283461ZM40.4487 10.381C40.772 9.4827 42.016 6.00585 42.016 6.00585C42.0094 6.01933 42.0608 5.87267 42.1371 5.65468C42.2498 5.33293 42.417 4.85575 42.5325 4.50875L42.8069 5.85616C42.8069 5.85616 43.5503 9.59922 43.7117 10.381H40.4487Z" fill="white"/>
<path d="M9.95072 10.9466L13.7953 0.283461H17.9464L11.7759 15.9042H7.62452L4.10303 2.2294C6.59066 3.57747 8.81982 6.28865 9.53061 8.78403L9.95072 10.9466Z" fill="white"/>
<path d="M6.38073 0.283447H0.0646163L0 0.599405C4.92696 1.89706 8.18999 5.02502 9.53062 8.78467L8.15757 1.59791C7.93152 0.599184 7.23684 0.316392 6.38073 0.283447Z" fill="#FAA61A"/>
</svg>
