<svg width="21" height="26" viewBox="0 0 21 26" fill="none" xmlns="http://www.w3.org/2000/svg">
<path d="M15.0025 3.42863C15.0025 4.76993 11.8679 5.85726 8.00125 5.85726C4.13457 5.85726 1 4.76993 1 3.42863M15.0025 3.42863C15.0025 2.08733 11.8679 1 8.00125 1C4.13457 1 1 2.08733 1 3.42863M15.0025 3.42863V8.28589M1 3.42863V8.28589C1 9.62719 4.13457 10.7145 8.00125 10.7145C11.8679 10.7145 15.0025 9.62719 15.0025 8.28589M19.67 10.5763C19.67 11.9176 16.5354 13.005 12.6688 13.005C8.80207 13.005 5.6675 11.9176 5.6675 10.5763V15.4336M19.67 10.5763C19.67 9.51889 17.7218 8.61929 15.0025 8.28589M19.67 10.5763V15.4336C19.67 16.7749 16.5354 17.8623 12.6688 17.8623C8.80207 17.8623 5.6675 16.7749 5.6675 15.4336M1 17.7241C1 19.0654 4.13457 20.1527 8.00125 20.1527C11.8679 20.1527 15.0025 19.0654 15.0025 17.7241V22.5814C15.0025 23.9227 11.8679 25.01 8.00125 25.01C4.13457 25.01 1 23.9227 1 22.5814V17.7241ZM1 17.7241C1 16.6666 2.94823 15.767 5.6675 15.4336" stroke="#979797" stroke-width="2"/>
</svg>
