<svg width="23" height="28" viewBox="0 0 23 28" fill="none" xmlns="http://www.w3.org/2000/svg">
<path d="M14.2683 7.13507C14.2683 7.68735 14.7161 8.13507 15.2683 8.13507C15.8206 8.13507 16.2683 7.68735 16.2683 7.13507H14.2683ZM16.2683 19.4052C16.2683 18.8529 15.8206 18.4052 15.2683 18.4052C14.7161 18.4052 14.2683 18.8529 14.2683 19.4052H16.2683ZM11.4635 23.3133C10.9112 23.3133 10.4635 23.761 10.4635 24.3133C10.4635 24.8655 10.9112 25.3133 11.4635 25.3133V23.3133ZM13.9699 24.0309L14.4552 24.9053L14.4552 24.9053L13.9699 24.0309ZM15.0091 22.8989L14.1033 22.4752L14.1033 22.4752L15.0091 22.8989ZM2.29844 1.28233L2.78372 2.15669L2.78372 2.15669L2.29844 1.28233ZM0 5.14458C0 5.69686 0.447715 6.14458 1 6.14458C1.55228 6.14458 2 5.69686 2 5.14458H0ZM1.25919 2.41436L2.16499 2.83806V2.83806L1.25919 2.41436ZM15.0091 2.41436L14.1033 2.83806V2.83806L15.0091 2.41436ZM13.9699 1.28233L14.4552 0.407975V0.407975L13.9699 1.28233ZM4.2476 2.3166L3.87189 3.24334L4.2476 2.3166ZM9.00371 4.24477L9.37942 3.31803H9.37942L9.00371 4.24477ZM7.26463 26.6777L7.64034 25.751L7.26463 26.6777ZM2.50851 24.7495L2.13281 25.6763H2.13281L2.50851 24.7495ZM21.2135 14.2701C21.7658 14.2701 22.2135 13.8224 22.2135 13.2701C22.2135 12.7179 21.7658 12.2701 21.2135 12.2701V14.2701ZM10.5122 12.2701C9.95994 12.2701 9.51223 12.7179 9.51223 13.2701C9.51223 13.8224 9.95994 14.2701 10.5122 14.2701V12.2701ZM18.1173 16.2553C17.733 16.6519 17.7429 17.285 18.1395 17.6693C18.5361 18.0536 19.1692 18.0437 19.5536 17.6471L18.1173 16.2553ZM21.0573 14.6583L21.7754 15.3542L21.0573 14.6583ZM21.0573 11.8819L21.7754 11.186L21.7754 11.186L21.0573 11.8819ZM19.5536 8.89319C19.1692 8.49658 18.5361 8.48662 18.1395 8.87096C17.7429 9.2553 17.733 9.88838 18.1173 10.285L19.5536 8.89319ZM21.8518 13.6493L20.898 13.349L21.8518 13.6493ZM21.8518 12.891L20.898 13.1913L21.8518 12.891ZM16.2683 7.13507V5.14458H14.2683V7.13507H16.2683ZM11.4635 0H4.80489V2H11.4635V0ZM16.2683 20.1687V19.4052H14.2683V20.1687H16.2683ZM11.4635 25.3133C12.1114 25.3133 12.6629 25.3142 13.114 25.274C13.5796 25.2326 14.0292 25.1417 14.4552 24.9053L13.4846 23.1566C13.402 23.2024 13.2642 23.2528 12.9367 23.2819C12.5948 23.3123 12.1473 23.3133 11.4635 23.3133V25.3133ZM14.2683 20.1687C14.2683 20.9092 14.2677 21.4094 14.2387 21.7952C14.2105 22.1717 14.1597 22.3548 14.1033 22.4752L15.915 23.3226C16.1178 22.8889 16.1966 22.4323 16.2331 21.9448C16.269 21.4668 16.2683 20.8789 16.2683 20.1687H14.2683ZM14.4552 24.9053C15.0966 24.5493 15.6026 23.9903 15.915 23.3226L14.1033 22.4752C13.9597 22.7823 13.7381 23.0159 13.4846 23.1566L14.4552 24.9053ZM4.80489 0C4.15693 0 3.60548 -0.000921607 3.15434 0.0392285C2.68875 0.0806648 2.23919 0.171524 1.81316 0.407975L2.78372 2.15669C2.86639 2.11081 3.00413 2.0605 3.33163 2.03135C3.67359 2.00092 4.12102 2 4.80489 2V0ZM2 5.14458C2 4.40405 2.00066 3.90389 2.0296 3.51803C2.05783 3.14157 2.10868 2.95846 2.16499 2.83806L0.353391 1.99066C0.150517 2.42437 0.0717617 2.881 0.0352003 3.36844C-0.000656128 3.84648 0 4.43437 0 5.14458H2ZM1.81316 0.407974C1.17174 0.763973 0.665723 1.32295 0.353391 1.99066L2.16499 2.83806C2.30865 2.53096 2.53022 2.29739 2.78372 2.15669L1.81316 0.407974ZM16.2683 5.14458C16.2683 4.43437 16.269 3.84648 16.2331 3.36844C16.1966 2.881 16.1178 2.42437 15.915 1.99066L14.1033 2.83806C14.1597 2.95846 14.2105 3.14157 14.2387 3.51803C14.2677 3.90389 14.2683 4.40405 14.2683 5.14458H16.2683ZM11.4635 2C12.1473 2 12.5948 2.00092 12.9367 2.03135C13.2642 2.0605 13.402 2.11081 13.4846 2.15669L14.4552 0.407975C14.0292 0.171524 13.5796 0.0806648 13.114 0.0392285C12.6629 -0.000921607 12.1114 0 11.4635 0V2ZM15.915 1.99066C15.6026 1.32295 15.0966 0.763973 14.4552 0.407975L13.4846 2.15669C13.7381 2.29739 13.9597 2.53096 14.1033 2.83806L15.915 1.99066ZM3.87189 3.24334L8.62801 5.1715L9.37942 3.31803L4.62331 1.38986L3.87189 3.24334ZM9.51223 6.52885V24.3936H11.5122V6.52885H9.51223ZM7.64034 25.751L2.88422 23.8228L2.13281 25.6763L6.88892 27.6044L7.64034 25.751ZM2 22.4654V4.6007H0V22.4654H2ZM2.88422 23.8228C2.36507 23.6123 2 23.082 2 22.4654H0C0 23.8669 0.831868 25.1489 2.13281 25.6763L2.88422 23.8228ZM9.51223 24.3936C9.51223 25.4622 8.4987 26.0989 7.64034 25.751L6.88892 27.6044C9.15067 28.5214 11.5122 26.7844 11.5122 24.3936H9.51223ZM8.62801 5.1715C9.14716 5.38197 9.51223 5.91229 9.51223 6.52885H11.5122C11.5122 5.12744 10.6804 3.84544 9.37942 3.31803L8.62801 5.1715ZM4.62331 1.38986C2.36155 0.472931 0 2.20994 0 4.6007H2C2 3.53211 3.01353 2.89535 3.87189 3.24334L4.62331 1.38986ZM21.2135 12.2701H10.5122V14.2701H21.2135V12.2701ZM19.5536 17.6471L21.7754 15.3542L20.3391 13.9624L18.1173 16.2553L19.5536 17.6471ZM21.7754 11.186L19.5536 8.89319L18.1173 10.285L20.3391 12.5778L21.7754 11.186ZM21.7754 15.3542C21.9995 15.1231 22.2097 14.9072 22.3703 14.712C22.5388 14.5071 22.7073 14.2619 22.8056 13.9496L20.898 13.349C20.9081 13.3168 20.9147 13.3332 20.8258 13.4414C20.7289 13.5591 20.586 13.7077 20.3391 13.9624L21.7754 15.3542ZM20.3391 12.5778C20.586 12.8325 20.7289 12.9811 20.8258 13.0989C20.9147 13.2071 20.9081 13.2234 20.898 13.1913L22.8056 12.5906C22.7073 12.2783 22.5388 12.0332 22.3703 11.8283C22.2097 11.6331 21.9995 11.4172 21.7754 11.186L20.3391 12.5778ZM22.8056 13.9496C22.9448 13.5077 22.9448 13.0326 22.8056 12.5906L20.898 13.1913C20.914 13.2422 20.914 13.298 20.898 13.349L22.8056 13.9496Z" fill="#979797"/>
</svg>
