<svg width="28" height="28" viewBox="0 0 28 28" fill="none" xmlns="http://www.w3.org/2000/svg">
<path d="M11.5 26.5C16.8129 26.5 21.1581 22.3568 21.4808 17.1251C21.502 16.7806 21.2202 16.5 20.875 16.5H12.125C11.7798 16.5 11.5 16.2202 11.5 15.875V7.125C11.5 6.77982 11.2194 6.49797 10.8749 6.51922C5.64323 6.8419 1.5 11.1871 1.5 16.5C1.5 22.0228 5.97715 26.5 11.5 26.5Z" stroke="#979797" stroke-width="2"/>
<path d="M26.4808 10.8749C26.1709 5.84997 22.15 1.82915 17.1251 1.51922C16.7806 1.49797 16.5 1.77982 16.5 2.125V10.875C16.5 11.2202 16.7798 11.5 17.125 11.5L25.875 11.5C26.2202 11.5 26.502 11.2194 26.4808 10.8749Z" stroke="#979797" stroke-width="2"/>
</svg>
