<svg width="26" height="26" viewBox="0 0 26 26" fill="none" xmlns="http://www.w3.org/2000/svg">
<path d="M5.5 4.25V9.25M5.5 4.25C5.5 2.86929 6.61929 1.75 8 1.75H18C19.3807 1.75 20.5 2.86929 20.5 4.25M5.5 4.25H4.25C2.86929 4.25 1.75 5.36929 1.75 6.75C1.75 8.13071 2.86929 9.25 4.25 9.25H5.5M5.5 9.25C5.5 13.3921 8.85786 16.75 13 16.75M20.5 9.25V4.25M20.5 9.25C20.5 13.3921 17.1421 16.75 13 16.75M20.5 9.25H21.75C23.1307 9.25 24.25 8.13071 24.25 6.75C24.25 5.36929 23.1307 4.25 21.75 4.25L20.5 4.25M13 16.75V19.25M13 19.25C13 22.0114 13.9886 24.25 16.75 24.25M13 19.25C13 22.0114 12.0114 24.25 9.25 24.25M16.75 24.25H9.25M16.75 24.25H18M9.25 24.25H8" stroke="#979797" stroke-width="2" stroke-linecap="round"/>
</svg>
