<svg width="22" height="22" viewBox="0 0 22 22" fill="none" xmlns="http://www.w3.org/2000/svg">
<path d="M7.84771 2.7583C7.84771 1.78722 8.67488 1 9.69525 1H12.3047C13.3251 1 14.1522 1.78722 14.1522 2.75831C14.1522 4.11186 15.6919 4.95781 16.9236 4.28104C17.8073 3.79548 18.9373 4.08362 19.4475 4.92462L20.7522 7.07525C21.2624 7.91625 20.9596 8.99162 20.0759 9.47717C18.8442 10.154 18.8442 11.8459 20.0759 12.5227C20.9596 13.0082 21.2624 14.0836 20.7522 14.9246L19.4475 17.0752C18.9373 17.9162 17.8073 18.2044 16.9236 17.7188C15.6919 17.0421 14.1522 17.8881 14.1522 19.2416C14.1522 20.2127 13.325 21 12.3046 21H9.6953C8.6749 21 7.84771 20.2127 7.84771 19.2416C7.84771 17.8881 6.30807 17.0421 5.07636 17.7188C4.19268 18.2044 3.06273 17.9162 2.55253 17.0753L1.24784 14.9246C0.737642 14.0836 1.04041 13.0082 1.9241 12.5227C3.15582 11.8459 3.15582 10.154 1.9241 9.47717C1.04042 8.99162 0.737643 7.91624 1.24784 7.07525L2.55254 4.9246C3.06273 4.08361 4.19269 3.79547 5.07637 4.28102C6.30806 4.95779 7.84771 4.11184 7.84771 2.7583Z" stroke="#979797" stroke-width="2"/>
<path d="M15.203 11C15.203 13.2091 13.3212 15 11 15C8.67871 15 6.79695 13.2091 6.79695 11C6.79695 8.79086 8.67871 7 11 7C13.3212 7 15.203 8.79086 15.203 11Z" stroke="#979797" stroke-width="2"/>
</svg>
