<svg width="20" height="20" viewBox="0 0 20 20" fill="none" xmlns="http://www.w3.org/2000/svg">
<path d="M9.46113 7.79464L10.1682 7.08753L9.46113 7.79464ZM12.2052 10.5387L11.4981 11.2458L12.2052 10.5387ZM12.7945 10.5387L13.5016 11.2458L13.5016 11.2458L12.7945 10.5387ZM18.2069 6.54045C18.5975 6.14993 18.5975 5.51676 18.2069 5.12624C17.8164 4.73571 17.1833 4.73571 16.7927 5.12624L18.2069 6.54045ZM4.29273 10.9596C3.90221 11.3501 3.90221 11.9833 4.29273 12.3738C4.68325 12.7643 5.31642 12.7643 5.70694 12.3738L4.29273 10.9596ZM8.87188 7.79464L9.57898 8.50174L9.57898 8.50174L8.87188 7.79464ZM14.1665 4.00001C13.6142 4.00001 13.1665 4.44773 13.1665 5.00001C13.1665 5.55229 13.6142 6.00001 14.1665 6.00001V4.00001ZM17.3332 9.16668C17.3332 9.71896 17.7809 10.1667 18.3332 10.1667C18.8855 10.1667 19.3332 9.71896 19.3332 9.16668H17.3332ZM18.3332 17.6667C18.8855 17.6667 19.3332 17.219 19.3332 16.6667C19.3332 16.1144 18.8855 15.6667 18.3332 15.6667V17.6667ZM2.6665 3.33334C2.6665 2.78106 2.21879 2.33334 1.6665 2.33334C1.11422 2.33334 0.666504 2.78106 0.666504 3.33334H2.6665ZM3.48654 16.3034L3.94053 15.4124L3.48654 16.3034ZM2.02982 14.8466L1.13881 15.3006L2.02982 14.8466ZM8.75402 8.50174L11.4981 11.2458L12.9123 9.83161L10.1682 7.08753L8.75402 8.50174ZM13.5016 11.2458L18.2069 6.54045L16.7927 5.12624L12.0874 9.83161L13.5016 11.2458ZM5.70694 12.3738L9.57898 8.50174L8.16477 7.08753L4.29273 10.9596L5.70694 12.3738ZM11.4981 11.2458C12.0513 11.7991 12.9483 11.7991 13.5016 11.2458L12.0874 9.83161C12.3152 9.60381 12.6845 9.6038 12.9123 9.83161L11.4981 11.2458ZM10.1682 7.08753C9.615 6.53429 8.71801 6.53429 8.16477 7.08753L9.57898 8.50174C9.35118 8.72955 8.98183 8.72955 8.75402 8.50174L10.1682 7.08753ZM14.1665 6.00001H17.9165V4.00001H14.1665V6.00001ZM17.3332 5.41668V9.16668H19.3332V5.41668H17.3332ZM17.9165 6.00001C17.5943 6.00001 17.3332 5.73884 17.3332 5.41668H19.3332C19.3332 4.63427 18.6989 4.00001 17.9165 4.00001V6.00001ZM18.3332 15.6667H6.99984V17.6667H18.3332V15.6667ZM2.6665 11.3333V3.33334H0.666504V11.3333H2.6665ZM6.99984 15.6667C6.04992 15.6667 5.39762 15.6659 4.89194 15.6246C4.39794 15.5842 4.13258 15.5102 3.94053 15.4124L3.03254 17.1944C3.55353 17.4598 4.1114 17.5675 4.72908 17.6179C5.33509 17.6675 6.08292 17.6667 6.99984 17.6667V15.6667ZM0.666504 11.3333C0.666504 12.2503 0.665726 12.9981 0.715239 13.6041C0.765706 14.2218 0.873353 14.7796 1.13881 15.3006L2.92082 14.3927C2.82297 14.2006 2.74896 13.9352 2.7086 13.4412C2.66728 12.9356 2.6665 12.2833 2.6665 11.3333H0.666504ZM3.94053 15.4124C3.50148 15.1887 3.14453 14.8317 2.92082 14.3927L1.13881 15.3006C1.55426 16.116 2.21718 16.7789 3.03254 17.1944L3.94053 15.4124Z" fill="#111111"/>
</svg>
