<svg width="20" height="16" viewBox="0 0 20 16" fill="none" xmlns="http://www.w3.org/2000/svg">
<path d="M16.6665 6.33331V3.99998C16.6665 3.06656 16.6665 2.59985 16.4848 2.24333C16.3251 1.92973 16.0701 1.67476 15.7565 1.51497C15.4 1.33331 14.9333 1.33331 13.9998 1.33331H4.33317C3.39975 1.33331 2.93304 1.33331 2.57652 1.51497C2.26292 1.67476 2.00795 1.92973 1.84816 2.24333C1.6665 2.59985 1.6665 3.06656 1.6665 3.99998V12C1.6665 12.9334 1.6665 13.4001 1.84816 13.7566C2.00795 14.0702 2.26292 14.3252 2.57652 14.485C2.93304 14.6666 3.39975 14.6666 4.33317 14.6666H13.9998C14.9333 14.6666 15.4 14.6666 15.7565 14.485C16.0701 14.3252 16.3251 14.0702 16.4848 13.7566C16.6665 13.4001 16.6665 12.9334 16.6665 12V10.0833M12.9998 9.66665H16.9998C17.4665 9.66665 17.6999 9.66665 17.8782 9.57582C18.035 9.49592 18.1624 9.36844 18.2423 9.21164C18.3332 9.03338 18.3332 8.80002 18.3332 8.33331V7.66665C18.3332 7.19994 18.3332 6.96658 18.2423 6.78832C18.1624 6.63152 18.035 6.50404 17.8782 6.42414C17.6999 6.33331 17.4665 6.33331 16.9998 6.33331H12.9998C12.5331 6.33331 12.2998 6.33331 12.1215 6.42414C11.9647 6.50404 11.8372 6.63152 11.7573 6.78832C11.6665 6.96658 11.6665 7.19994 11.6665 7.66665V8.33331C11.6665 8.80002 11.6665 9.03338 11.7573 9.21164C11.8372 9.36844 11.9647 9.49592 12.1215 9.57582C12.2998 9.66665 12.5331 9.66665 12.9998 9.66665Z" stroke="#111111" stroke-width="2"/>
</svg>
