<svg width="34" height="34" viewBox="0 0 34 34" fill="none" xmlns="http://www.w3.org/2000/svg">
<path d="M18.4167 29.1941H27.3075C27.8031 29.1941 28.1455 28.6982 27.9699 28.2348L27.265 26.3743C26.8946 25.3969 27.0973 24.2981 27.6945 23.4403C28.592 22.1515 29.75 20.152 29.75 18.4166M25.5 14.875C25.5 20.743 20.743 25.5 14.875 25.5H5.27585C4.78026 25.5 4.43788 25.0041 4.61347 24.5407L5.52162 22.1438C5.84636 21.2867 5.71301 20.3363 5.31251 19.5119C4.6318 18.1107 4.25 16.5374 4.25 14.875C4.25 9.00697 9.00697 4.25 14.875 4.25C20.743 4.25 25.5 9.00697 25.5 14.875Z" stroke="#9E9E9E" stroke-width="2" stroke-linecap="round"/>
</svg>
