<svg width="26" height="30" viewBox="0 0 26 30" fill="none" xmlns="http://www.w3.org/2000/svg">
<path d="M17.5795 27.3531C16.3675 28.3781 14.7755 29 13.0319 29C11.2883 29 9.69626 28.3781 8.48427 27.3531M23.3405 16.1214V10.8824C23.3405 5.41038 18.7423 1 13.0319 1C7.3214 1 2.66103 5.22236 2.66103 10.8824V16.0859C2.66103 16.8817 2.53159 17.6723 2.27769 18.4273L1.00839 22.2016C0.97363 22.3049 1.05124 22.4117 1.16115 22.4117H24.8286C24.9448 22.4117 25.0273 22.3032 24.9916 22.1972L23.7137 18.3973C23.4664 17.6619 23.3405 16.894 23.3405 16.1214Z" stroke="#111111" stroke-width="2" stroke-linecap="round"/>
</svg>
